<?xml version="1.0" encoding="UTF-8"?>
<svg width="504px" height="402px" viewBox="0 0 504 402" version="1.1" xmlns="http://www.w3.org/2000/svg" xmlns:xlink="http://www.w3.org/1999/xlink">
    <!-- Generator: Sketch 52.5 (67469) - http://www.bohemiancoding.com/sketch -->
    <title>email</title>
    <desc>Created with Sketch.</desc>
    <defs>
        <linearGradient x1="66.3633734%" y1="3.44394243%" x2="34.0834892%" y2="96.9957039%" id="linearGradient-1">
            <stop stop-color="#FBE08A" offset="0%"></stop>
            <stop stop-color="#F38F14" offset="100%"></stop>
        </linearGradient>
        <ellipse id="path-2" cx="152" cy="152.5" rx="152" ry="152.5"></ellipse>
    </defs>
    <g id="email" stroke="none" stroke-width="1" fill="none" fill-rule="evenodd">
        <rect fill="#F4F7FA" opacity="0" x="0" y="0" width="504" height="402"></rect>
        <g id="ededed" transform="translate(92.000000, 34.000000)">
            <g id="f-f" transform="translate(0.000000, 14.000000)">
                <mask id="mask-3" fill="white">
                    <use xlink:href="#path-2"></use>
                </mask>
                <use id="w" fill="url(#linearGradient-1)" xlink:href="#path-2"></use>
                <polygon id="e-e-e" fill="#FFFFFF" mask="url(#mask-3)" points="5.1092437 207.823909 34.9371784 207.823909 34.9371784 155.230386 62.7669579 137.121849 96.2481028 155.230386 96.2481028 207.823909 126.078007 207.823909 126.078007 155.230386 155.004405 137.121849 182.047716 155.230386 182.047716 207.823909 213.760708 207.823909 213.760708 155.230386 241.861548 137.121849 272.476423 155.230386 272.476423 207.823909 304.5686 207.823909 304.5686 301.894754 213.760708 305.957526 215.038019 258.534578 182.047716 258.534578 182.047716 307.833263 126.078007 310.050263 126.078007 258.534578 96.2481028 258.534578 96.2481028 307.833263 11.9455818 308.1408"></polygon>
                <path d="M40.5413251,41.6759638 C35.2038893,41.6759638 54.2247562,47.612518 54.2247562,60.7002139 C54.2247562,60.7002139 71.3361889,57.8446445 80.4855756,69.459655 C80.4855756,69.459655 155.845256,34.0436189 173.089785,119.502208 C173.089785,119.502208 195.56039,116.782884 203.107424,129.401611 C203.107424,129.401611 227.074576,81.0746654 299.103029,32.3771864 C299.103029,32.3771864 116.250281,-46.3227642 40.5413251,41.6759638 Z" id="f" fill="#E4791F" mask="url(#mask-3)"></path>
                <path d="M16.605042,243.582089 C42.2654731,245.335566 60.4658525,240.118148 71.2061801,227.929832 C87.3166716,209.647359 91.2713862,168.972356 57.7492808,157.235009 C24.2271754,145.497662 21.9845749,224.833266 106.287096,239.942371 C190.589617,255.051477 188.034995,128.284179 195.698861,106.903017 C200.808104,92.6489086 209.734053,83.9263344 222.476708,80.7352941" id="dashed" stroke="#5B677A" stroke-width="3" stroke-dasharray="10" mask="url(#mask-3)"></path>
            </g>
            <g id="p" transform="translate(197.000000, 0.000000)">
                <polygon id="w" fill="#E3EDEE" points="77.6472761 40.3153749 46 33.2259834 25.5555556 65.747857 25.5555556 92.5714286"></polygon>
                <polygon id="e" fill="#C5DDEB" transform="translate(51.334715, 69.137359) rotate(178.000000) translate(-51.334715, -69.137359) " points="77.3834834 46.7395476 45.6114892 39.4626749 25.2859465 71.9360047 25.4301588 98.8120431"></polygon>
                <polygon id="r" fill="#F3F3F3" points="4.54747351e-13 39.0400073 114.827983 7.10542736e-15 76.9596472 116.628311 48.5555556 92.5714286 76.9596472 39.0400073 25.5555556 66.2254744"></polygon>
            </g>
        </g>
    </g>
</svg>