<?xml version="1.0" encoding="UTF-8"?>
<svg width="1440px" height="153px" viewBox="0 0 1440 153" version="1.1" xmlns="http://www.w3.org/2000/svg" xmlns:xlink="http://www.w3.org/1999/xlink">
    <!-- Generator: Sketch 52.5 (67469) - http://www.bohemiancoding.com/sketch -->
    <title>login@2x</title>
    <desc>Created with Sketch.</desc>
    <defs>
        <linearGradient x1="0%" y1="50%" x2="100%" y2="50%" id="linearGradient-1">
            <stop stop-color="#FFB002" offset="0%"></stop>
            <stop stop-color="#FF7801" offset="100%"></stop>
        </linearGradient>
    </defs>
    <g id="login" stroke="none" stroke-width="1" fill="none" fill-rule="evenodd" opacity="0.1">
        <g id="分组" transform="translate(4.000000, 13.000000)">
            <g id="metalml" fill="#FFFFFF">
                <path d="M612.145458,127 C608.19913,127 605,123.781283 605,119.810795 L605,7.18920497 C605,3.2187167 608.19913,7.98162089e-16 612.145458,0 L620.698533,0 C624.644861,-7.98162089e-16 627.843991,3.2187167 627.843991,7.18920497 L627.843991,104.991022 L670.854542,104.991022 C674.80087,104.991022 678,108.209738 678,112.180226 L678,119.810795 C678,123.781283 674.80087,127 670.854542,127 L612.145458,127 Z" id="L"></path>
                <path d="M528.212111,78.0064431 L510.463287,122.477941 C509.373349,125.208893 506.731678,127 503.793787,127 L491.202201,127 C488.264595,127 485.623119,125.209235 484.53299,122.478667 L450.283012,36.6888964 L444.286096,120.325466 C444.016417,124.086576 440.889509,127 437.122481,127 L428.18249,127 C427.969463,127 427.756542,126.990513 427.544358,126.971566 C423.593513,126.618784 420.676422,123.126811 421.028852,119.172027 L431.06512,6.55043692 C431.395578,2.84221718 434.499523,7.98162104e-15 438.218758,7.18345894e-15 L454.58023,0 C457.527427,-3.99081052e-16 460.175489,1.80231534 461.259152,4.54578615 L497.455881,96.1837482 L533.733223,4.54082134 C534.818204,1.79996827 537.464931,1.07751884e-14 540.410181,1.03761074e-14 L552.892949,0.0859890143 C554.876169,0.0996506547 556.472822,1.72004588 556.459174,3.70524304 C556.456203,4.13731567 556.375435,4.5653127 556.220745,4.9686968 L528.212111,78.0064431 Z M567.030642,41.4662108 L573.971462,119.170544 C573.990478,119.38343 574,119.597059 574,119.810795 C574,123.781283 570.78449,127 566.817957,127 L557.874277,127 C554.107629,127 550.980902,124.087146 550.710732,120.326454 L547.938267,81.7344464 L563.566012,40.9821784 C563.921382,40.0554858 564.95995,39.5926243 565.885719,39.9483483 C566.525443,40.1941599 566.969617,40.7830167 567.030642,41.4662108 Z" id="M"></path>
                <path d="M375.876825,117.335645 C368.316346,122.787778 359.0333,126 349,126 C323.594902,126 303,105.405098 303,80 C303,54.5949015 323.594902,34 349,34 C374.405098,34 395,54.5949015 395,80 L395,116.416667 C395,121.709396 390.709396,126 385.416667,126 C380.433922,126 376.339354,122.197261 375.876825,117.335645 Z M349,106.833333 C363.819641,106.833333 375.833333,94.8196408 375.833333,80 C375.833333,65.1803592 363.819641,53.1666667 349,53.1666667 C334.180359,53.1666667 322.166667,65.1803592 322.166667,80 C322.166667,94.8196408 334.180359,106.833333 349,106.833333 Z" id="A"></path>
                <path d="M276.186047,126 C262.828462,126 252,114.844428 252,101.083333 L252,43.5833333 C252,38.2906045 256.164793,34 261.302326,34 C266.439858,34 270.604651,38.2906045 270.604651,43.5833333 L270.604651,53.1666667 L282.697674,53.1666667 C287.835207,53.1666667 292,57.4572711 292,62.75 C292,68.0427289 287.835207,72.3333333 282.697674,72.3333333 L270.604651,72.3333333 L270.604651,101.083333 C270.604651,104.258971 273.103527,106.833333 276.186047,106.833333 C281.323579,106.833333 285.488372,111.123938 285.488372,116.416667 C285.488372,121.709396 281.323579,126 276.186047,126 Z" id="T"></path>
                <path d="M229.770143,50.4350195 C233.152987,54.4896376 232.627616,60.5341993 228.596695,63.935926 L181.767612,103.455364 C191.15286,108.703112 203.172099,107.91107 211.887231,100.5563 C215.918153,97.1545729 221.928196,97.683846 225.31104,101.738464 C228.693883,105.793082 228.168512,111.837644 224.137591,115.239371 C204.78917,131.567658 175.940961,129.027147 159.703312,109.564981 C143.465663,90.1028136 145.987443,61.0889173 165.335864,44.7606294 C184.684285,28.4323415 213.532495,30.9728525 229.770143,50.4350195 Z M207.705843,56.5446356 C198.320596,51.2968877 186.301356,52.0889302 177.586224,59.4437005 C168.871091,66.7984708 166.008407,78.5654029 169.517252,88.7722933 L207.705843,56.5446356 Z" id="E"></path>
                <path d="M19.0277778,73.2916667 L19.0277778,116.416667 C19.0277778,121.709396 14.7682646,126 9.51388889,126 C4.25951314,126 0,121.709396 0,116.416667 L0,73.2916667 C1.18360225e-12,51.5914784 17.4640039,34 39.0069444,34 C50.7871726,34 61.347725,39.26017 68.5,47.5759331 C75.652275,39.26017 86.2128274,34 97.9930556,34 C119.535996,34 137,51.5914784 137,73.2916667 L137,116.416667 C137,121.709396 132.740487,126 127.486111,126 C122.231735,126 117.972222,121.709396 117.972222,116.416667 L117.972222,73.2916667 C117.972222,62.1769361 109.027245,53.1666667 97.9930556,53.1666667 C86.9588665,53.1666667 78.0138889,62.1769361 78.0138889,73.2916667 L78.0138889,116.416667 C78.0138889,121.709396 73.7543757,126 68.5,126 C63.2456243,126 58.9861111,121.709396 58.9861111,116.416667 L58.9861111,73.2916667 C58.9861111,62.1769361 50.0411335,53.1666667 39.0069444,53.1666667 C27.9727554,53.1666667 19.0277778,62.1769361 19.0277778,73.2916667 Z" id="M"></path>
            </g>
            <g id="metalml" transform="translate(755.000000, 0.000000)" fill="url(#linearGradient-1)">
                <path d="M612.145458,127 C608.19913,127 605,123.781283 605,119.810795 L605,7.18920497 C605,3.2187167 608.19913,7.98162089e-16 612.145458,0 L620.698533,0 C624.644861,-7.98162089e-16 627.843991,3.2187167 627.843991,7.18920497 L627.843991,104.991022 L670.854542,104.991022 C674.80087,104.991022 678,108.209738 678,112.180226 L678,119.810795 C678,123.781283 674.80087,127 670.854542,127 L612.145458,127 Z" id="L"></path>
                <path d="M528.212111,78.0064431 L510.463287,122.477941 C509.373349,125.208893 506.731678,127 503.793787,127 L491.202201,127 C488.264595,127 485.623119,125.209235 484.53299,122.478667 L450.283012,36.6888964 L444.286096,120.325466 C444.016417,124.086576 440.889509,127 437.122481,127 L428.18249,127 C427.969463,127 427.756542,126.990513 427.544358,126.971566 C423.593513,126.618784 420.676422,123.126811 421.028852,119.172027 L431.06512,6.55043692 C431.395578,2.84221718 434.499523,7.98162104e-15 438.218758,7.18345894e-15 L454.58023,0 C457.527427,-3.99081052e-16 460.175489,1.80231534 461.259152,4.54578615 L497.455881,96.1837482 L533.733223,4.54082134 C534.818204,1.79996827 537.464931,1.07751884e-14 540.410181,1.03761074e-14 L552.892949,0.0859890143 C554.876169,0.0996506547 556.472822,1.72004588 556.459174,3.70524304 C556.456203,4.13731567 556.375435,4.5653127 556.220745,4.9686968 L528.212111,78.0064431 Z M567.030642,41.4662108 L573.971462,119.170544 C573.990478,119.38343 574,119.597059 574,119.810795 C574,123.781283 570.78449,127 566.817957,127 L557.874277,127 C554.107629,127 550.980902,124.087146 550.710732,120.326454 L547.938267,81.7344464 L563.566012,40.9821784 C563.921382,40.0554858 564.95995,39.5926243 565.885719,39.9483483 C566.525443,40.1941599 566.969617,40.7830167 567.030642,41.4662108 Z" id="M"></path>
                <path d="M375.876825,117.335645 C368.316346,122.787778 359.0333,126 349,126 C323.594902,126 303,105.405098 303,80 C303,54.5949015 323.594902,34 349,34 C374.405098,34 395,54.5949015 395,80 L395,116.416667 C395,121.709396 390.709396,126 385.416667,126 C380.433922,126 376.339354,122.197261 375.876825,117.335645 Z M349,106.833333 C363.819641,106.833333 375.833333,94.8196408 375.833333,80 C375.833333,65.1803592 363.819641,53.1666667 349,53.1666667 C334.180359,53.1666667 322.166667,65.1803592 322.166667,80 C322.166667,94.8196408 334.180359,106.833333 349,106.833333 Z" id="A"></path>
                <path d="M276.186047,126 C262.828462,126 252,114.844428 252,101.083333 L252,43.5833333 C252,38.2906045 256.164793,34 261.302326,34 C266.439858,34 270.604651,38.2906045 270.604651,43.5833333 L270.604651,53.1666667 L282.697674,53.1666667 C287.835207,53.1666667 292,57.4572711 292,62.75 C292,68.0427289 287.835207,72.3333333 282.697674,72.3333333 L270.604651,72.3333333 L270.604651,101.083333 C270.604651,104.258971 273.103527,106.833333 276.186047,106.833333 C281.323579,106.833333 285.488372,111.123938 285.488372,116.416667 C285.488372,121.709396 281.323579,126 276.186047,126 Z" id="T"></path>
                <path d="M229.770143,50.4350195 C233.152987,54.4896376 232.627616,60.5341993 228.596695,63.935926 L181.767612,103.455364 C191.15286,108.703112 203.172099,107.91107 211.887231,100.5563 C215.918153,97.1545729 221.928196,97.683846 225.31104,101.738464 C228.693883,105.793082 228.168512,111.837644 224.137591,115.239371 C204.78917,131.567658 175.940961,129.027147 159.703312,109.564981 C143.465663,90.1028136 145.987443,61.0889173 165.335864,44.7606294 C184.684285,28.4323415 213.532495,30.9728525 229.770143,50.4350195 Z M207.705843,56.5446356 C198.320596,51.2968877 186.301356,52.0889302 177.586224,59.4437005 C168.871091,66.7984708 166.008407,78.5654029 169.517252,88.7722933 L207.705843,56.5446356 Z" id="E"></path>
                <path d="M19.0277778,73.2916667 L19.0277778,116.416667 C19.0277778,121.709396 14.7682646,126 9.51388889,126 C4.25951314,126 0,121.709396 0,116.416667 L0,73.2916667 C1.18360225e-12,51.5914784 17.4640039,34 39.0069444,34 C50.7871726,34 61.347725,39.26017 68.5,47.5759331 C75.652275,39.26017 86.2128274,34 97.9930556,34 C119.535996,34 137,51.5914784 137,73.2916667 L137,116.416667 C137,121.709396 132.740487,126 127.486111,126 C122.231735,126 117.972222,121.709396 117.972222,116.416667 L117.972222,73.2916667 C117.972222,62.1769361 109.027245,53.1666667 97.9930556,53.1666667 C86.9588665,53.1666667 78.0138889,62.1769361 78.0138889,73.2916667 L78.0138889,116.416667 C78.0138889,121.709396 73.7543757,126 68.5,126 C63.2456243,126 58.9861111,121.709396 58.9861111,116.416667 L58.9861111,73.2916667 C58.9861111,62.1769361 50.0411335,53.1666667 39.0069444,53.1666667 C27.9727554,53.1666667 19.0277778,62.1769361 19.0277778,73.2916667 Z" id="M"></path>
            </g>
        </g>
    </g>
</svg>