<?xml version="1.0" encoding="UTF-8"?>
<svg width="1440px" height="405px" viewBox="0 0 1440 405" version="1.1" xmlns="http://www.w3.org/2000/svg" xmlns:xlink="http://www.w3.org/1999/xlink">
    <!-- Generator: Sketch 52.5 (67469) - http://www.bohemiancoding.com/sketch -->
    <title>login@2x</title>
    <desc>Created with Sketch.</desc>
    <defs>
        <linearGradient x1="0%" y1="50%" x2="100%" y2="50%" id="linearGradient-1">
            <stop stop-color="#FFB002" offset="0%"></stop>
            <stop stop-color="#FF7801" offset="100%"></stop>
        </linearGradient>
    </defs>
    <g id="login" stroke="none" stroke-width="1" fill="none" fill-rule="evenodd" opacity="0.1">
        <g id="bg" transform="translate(-1589.000000, -2337.000000)">
            <g id="metalml">
                <g transform="translate(1639.000000, 2437.000000)">
                    <path d="M1210.19303,252 C1202.35444,252 1196,245.613255 1196,237.734806 L1196,14.2651941 C1196,6.38674495 1202.35444,1.5837547e-15 1210.19303,0 L1227.18202,0 C1235.02061,-1.5837547e-15 1241.37505,6.38674495 1241.37505,14.2651941 L1241.37505,208.328641 L1326.80697,208.328641 C1334.64556,208.328641 1341,214.715386 1341,222.593835 L1341,237.734806 C1341,245.613255 1334.64556,252 1326.80697,252 L1210.19303,252 Z" id="L" fill="url(#linearGradient-1)"></path>
                    <path d="M1044.62129,154.784438 L1009.58767,243.027096 C1007.43628,248.445992 1002.22201,252 996.42303,252 L971.569051,252 C965.770638,252 960.556745,248.446671 958.404987,243.028536 L890.800454,72.8000149 L878.963405,238.756043 C878.431097,246.219032 872.259031,252 864.823459,252 L847.177202,252 C846.756718,252 846.336442,251.981175 845.917621,251.94358 C838.119222,251.243572 832.361303,244.314618 833.05695,236.467329 L852.8671,12.9977173 C853.519377,5.63967503 859.646116,1.58375473e-14 866.987352,1.42537925e-14 L899.282546,0 C905.099889,-7.91877363e-16 910.326782,3.57624775 912.465777,9.01998512 L983.912916,190.852792 L1055.51917,9.01013368 C1057.66077,3.57159058 1062.88503,2.13806888e-14 1068.69853,2.05888114e-14 L1093.33772,0.170623871 C1097.25231,0.197732008 1100.40387,3.41300442 1100.37693,7.3521358 C1100.37107,8.20947676 1100.21164,9.05873072 1099.90631,9.85914641 L1044.62129,154.784438 Z M1121.24349,82.2794105 L1134.94367,236.464387 C1134.9812,236.886806 1135,237.310701 1135,237.734806 C1135,245.613255 1128.65305,252 1120.82368,252 L1103.17014,252 C1095.73532,252 1089.56361,246.220164 1089.03033,238.758003 L1083.55789,162.181736 L1114.40481,81.3189682 C1115.10626,79.4801766 1117.15624,78.5617428 1118.98358,79.2675887 C1120.2463,79.7553409 1121.12303,80.9237812 1121.24349,82.2794105 Z" id="M" fill="url(#linearGradient-1)"></path>
                    <path d="M743.377233,232.859645 C728.502811,243.645387 710.239428,250 690.5,250 C640.51823,250 600,209.257912 600,159 C600,108.742088 640.51823,68 690.5,68 C740.48177,68 781,108.742088 781,159 L781,231.041667 C781,241.512065 772.558702,250 762.145833,250 C752.342824,250 744.287207,242.47719 743.377233,232.859645 Z M690.5,212.083333 C719.656032,212.083333 743.291667,188.317115 743.291667,159 C743.291667,129.682885 719.656032,105.916667 690.5,105.916667 C661.343968,105.916667 637.708333,129.682885 637.708333,159 C637.708333,188.317115 661.343968,212.083333 690.5,212.083333 Z" id="A" fill="#FFFFFF"></path>
                    <path d="M545.372093,250 C518.656924,250 497,227.931369 497,200.708333 L497,86.9583333 C497,76.487935 505.329586,68 515.604651,68 C525.879716,68 534.209302,76.487935 534.209302,86.9583333 L534.209302,105.916667 L558.395349,105.916667 C568.670414,105.916667 577,114.404602 577,124.875 C577,135.345398 568.670414,143.833333 558.395349,143.833333 L534.209302,143.833333 L534.209302,200.708333 C534.209302,206.990572 539.207054,212.083333 545.372093,212.083333 C555.647158,212.083333 563.976744,220.571268 563.976744,231.041667 C563.976744,241.512065 555.647158,250 545.372093,250 Z" id="T" fill="#FFFFFF"></path>
                    <path d="M453.594018,100.512756 C460.278191,108.533848 459.240109,120.491568 451.275397,127.221071 L358.745644,205.40083 C377.289988,215.782244 401.038846,214.215377 418.259108,199.665723 C426.223819,192.93622 438.099086,193.983261 444.783259,202.004353 C451.467432,210.025445 450.42935,221.983165 442.464638,228.712668 C404.234023,261.014281 347.232741,255.988487 315.148713,217.487244 C283.064684,178.986001 288.047477,121.588945 326.278093,89.2873321 C364.508708,56.9857192 421.50999,62.0115126 453.594018,100.512756 Z M409.997087,112.59917 C391.452743,102.217756 367.703885,103.784623 350.483623,118.334277 C333.263361,132.883931 327.606973,156.161993 334.540113,176.353885 L409.997087,112.59917 Z" id="E" fill="#FFFFFF"></path>
                    <path d="M37.6388889,145.729167 L37.6388889,231.041667 C37.6388889,241.512065 29.2131366,250 18.8194444,250 C8.42575228,250 0,241.512065 0,231.041667 L0,145.729167 C2.34128621e-12,102.800533 34.5455843,68 77.1597222,68 C100.462217,68 121.352069,78.4059884 135.5,94.8567372 C149.647931,78.4059884 170.537783,68 193.840278,68 C236.454416,68 271,102.800533 271,145.729167 L271,231.041667 C271,241.512065 262.574248,250 252.180556,250 C241.786863,250 233.361111,241.512065 233.361111,231.041667 L233.361111,145.729167 C233.361111,123.74133 215.667031,105.916667 193.840278,105.916667 C172.013524,105.916667 154.319444,123.74133 154.319444,145.729167 L154.319444,231.041667 C154.319444,241.512065 145.893692,250 135.5,250 C125.106308,250 116.680556,241.512065 116.680556,231.041667 L116.680556,145.729167 C116.680556,123.74133 98.9864758,105.916667 77.1597222,105.916667 C55.3329687,105.916667 37.6388889,123.74133 37.6388889,145.729167 Z" id="M" fill="#FFFFFF"></path>
                </g>
            </g>
        </g>
    </g>
</svg>