
<svg width="1293px" height="243px" viewBox="0 0 1293 243" version="1.1" xmlns="http://www.w3.org/2000/svg" xmlns:xlink="http://www.w3.org/1999/xlink">
    <defs>
        <linearGradient x1="0%" y1="50%" x2="100%" y2="50%" id="linearGradient-1">
            <stop stop-color="#FFB002" offset="0%"></stop>
            <stop stop-color="#FF7801" offset="100%"></stop>
        </linearGradient>
    </defs>
    <g id="Page-1" stroke="none" stroke-width="1" fill="none" fill-rule="evenodd">
        <g id="logo" transform="translate(-98.000000, -391.000000)">
            <g id="metalml" transform="translate(98.000000, 391.000000)">
                <path d="M1166.70362,243 C1159.13532,243 1153,236.841353 1153,229.244277 L1153,13.7557229 C1153,6.15864692 1159.13532,1.52719203e-15 1166.70362,0 L1183.10678,0 C1190.67508,-1.52719203e-15 1196.81039,6.15864692 1196.81039,13.7557229 L1196.81039,200.888333 L1279.29638,200.888333 C1286.86468,200.888333 1293,207.046979 1293,214.644055 L1293,229.244277 C1293,236.841353 1286.86468,243 1279.29638,243 L1166.70362,243 Z" id="L" fill="url(#linearGradient-1)"></path>
                <path d="M1007.3147,149.256423 L973.325119,234.347557 C971.237852,239.57292 966.178965,243 960.552807,243 L936.43951,243 C930.813897,243 925.755385,239.573575 923.667753,234.348945 L858.077924,70.2000143 L846.593635,230.229041 C846.07719,237.425496 840.08906,243 832.875078,243 L815.754702,243 C815.346749,243 814.938999,242.981847 814.532659,242.945595 C806.966662,242.270587 801.380337,235.589096 802.055253,228.022067 L821.275035,12.5335132 C821.907872,5.43825807 827.852027,1.52719206e-14 834.974484,1.37447285e-14 L866.307238,0 C871.951216,-7.63596029e-16 877.022341,3.44852462 879.097591,8.6978428 L948.415511,184.036621 L1017.88781,8.6883432 C1019.96558,3.44403378 1025.03415,2.06170928e-14 1030.6744,1.98534967e-14 L1054.57931,0.164530161 C1058.37724,0.19067015 1061.43488,3.2911114 1061.40874,7.08955952 C1061.40306,7.91628116 1061.24838,8.73520462 1060.95214,9.50703404 L1007.3147,149.256423 Z M1081.65345,79.3408601 L1094.94535,228.01923 C1094.98176,228.426563 1095,228.835318 1095,229.244277 C1095,236.841353 1088.84219,243 1081.24615,243 L1064.11871,243 C1056.90546,243 1050.91767,237.426587 1050.40029,230.230931 L1045.09093,156.389531 L1075.01857,78.4147193 C1075.69912,76.6415989 1077.68801,75.7559662 1079.46089,76.4366034 C1080.68598,76.9069358 1081.53659,78.0336462 1081.65345,79.3408601 Z" id="M" fill="url(#linearGradient-1)"></path>
                <path d="M716.832257,224.518889 C702.533089,234.889795 684.976024,241 666,241 C617.951227,241 579,201.824916 579,153.5 C579,105.175084 617.951227,66 666,66 C714.048773,66 753,105.175084 753,153.5 L753,222.770833 C753,232.838524 744.885161,241 734.875,241 C725.451112,241 717.707039,233.766529 716.832257,224.518889 Z M666,204.541667 C694.028451,204.541667 716.75,181.689534 716.75,153.5 C716.75,125.310466 694.028451,102.458333 666,102.458333 C637.971549,102.458333 615.25,125.310466 615.25,153.5 C615.25,181.689534 637.971549,204.541667 666,204.541667 Z" id="A" fill="#555B71"></path>
                <path d="M526.162791,241 C500.115501,241 479,219.780163 479,193.604167 L479,84.2291667 C479,74.1614759 487.121346,66 497.139535,66 C507.157723,66 515.27907,74.1614759 515.27907,84.2291667 L515.27907,102.458333 L538.860465,102.458333 C548.878654,102.458333 557,110.619809 557,120.6875 C557,130.755191 548.878654,138.916667 538.860465,138.916667 L515.27907,138.916667 L515.27907,193.604167 C515.27907,199.644781 520.151878,204.541667 526.162791,204.541667 C536.180979,204.541667 544.302326,212.703143 544.302326,222.770833 C544.302326,232.838524 536.180979,241 526.162791,241 Z" id="T" fill="#555B71"></path>
                <path d="M436.755213,97.2622653 C443.194842,104.974854 442.194739,116.472662 434.521419,122.943337 L345.376901,198.116182 C363.242793,208.098311 386.122791,206.591709 402.713043,192.601657 C410.386363,186.130981 421.827169,187.137751 428.266798,194.850339 C434.706428,202.562928 433.706325,214.060736 426.033005,220.531411 C389.201071,251.590655 334.285202,246.758161 303.374979,209.737735 C272.464756,172.717308 277.265252,117.527832 314.097187,86.4685886 C350.929121,55.4093453 405.84499,60.241839 436.755213,97.2622653 Z M394.753291,108.883818 C376.887399,98.9016885 354.007401,100.408291 337.417149,114.398343 C320.826897,128.388395 315.377449,150.771147 322.056938,170.186428 L394.753291,108.883818 Z" id="E" fill="#555B71"></path>
                <path d="M36.25,140.739583 L36.25,222.770833 C36.25,232.838524 28.1351611,241 18.125,241 C8.11483891,241 0,232.838524 0,222.770833 L0,140.739583 C2.25489188e-12,99.4620513 33.2708395,66 74.3125,66 C96.7551245,66 116.874133,76.0057581 130.5,91.8237858 C144.125867,76.0057581 164.244876,66 186.6875,66 C227.72916,66 261,99.4620513 261,140.739583 L261,222.770833 C261,232.838524 252.885161,241 242.875,241 C232.864839,241 224.75,232.838524 224.75,222.770833 L224.75,140.739583 C224.75,119.597433 207.708838,102.458333 186.6875,102.458333 C165.666162,102.458333 148.625,119.597433 148.625,140.739583 L148.625,222.770833 C148.625,232.838524 140.510161,241 130.5,241 C120.489839,241 112.375,232.838524 112.375,222.770833 L112.375,140.739583 C112.375,119.597433 95.3338383,102.458333 74.3125,102.458333 C53.2911617,102.458333 36.25,119.597433 36.25,140.739583 Z" id="M" fill="#555B71"></path>
            </g>
        </g>
    </g>
</svg>